# xmcd
# 
# Track frame offsets:
#     150
#     19163
#     40660
#     57625
#     78886
#     98052
#     117815
#     136008
#     156735
#     178784
#     200857
#     227986
#     243954
#     266340
# 
# Disc length: 3810
# 
# Revision: 8
# Processed by: cddbd v1.5.2PL0 Copyright (c) Steve Scherf et al.
# Submitted via: fre:ac v1.0.27
# 
DISCID=bd0ee00e
DTITLE=UGK - PLAYLIST Vintage Grooves G-Funk
DYEAR=2001
DGENRE=Rap
TTITLE0=Let Me See It
TTITLE1=Choppin' Blades
TTITLE2=Look At Me
TTITLE3=Ain't That A Bitch (Ask Yourself) (feat. Devin the Dude)
TTITLE4=Gold Grill (feat. Eightball and MJG)
TTITLE5=PA Nigga
TTITLE6=Holdin' Na (feat. C-Note)
TTITLE7=Don't Say Shit (feat. Big Gipp)
TTITLE8=Dirty Money
TTITLE9=Like A Pimp (feat.  Juicy J and DJ Paul)
TTITLE10=Pimpin' Ain't No Illusion (feat. Kool Ace, Too $hort)
TTITLE11=Take It Off
TTITLE12=Wood Wheel
TTITLE13=Money, Hoes, and Power (feat. Jermaine Dupri)
EXTD=RapMusicGuide.com
EXTT0=
EXTT1=
EXTT2=
EXTT3=
EXTT4=
EXTT5=
EXTT6=
EXTT7=
EXTT8=
EXTT9=
EXTT10=
EXTT11=
EXTT12=
EXTT13=
PLAYORDER=
